<svg aria-hidden="true" style="position: absolute; width: 0; height: 0; overflow: hidden;" version="1.1" xmlns="http://www.w3.org/2000/svg" xmlns:xlink="http://www.w3.org/1999/xlink">
<defs>
<symbol id="icon-twitter" viewBox="0 0 32 32">
<path d="M28.711 8.877c0.020 0.284 0.020 0.569 0.020 0.853 0 8.67-6.599 18.66-18.66 18.66-3.716 0-7.168-1.076-10.071-2.944 0.528 0.061 1.036 0.081 1.584 0.081 3.066 0 5.888-1.036 8.142-2.802-2.883-0.061-5.3-1.949-6.132-4.548 0.406 0.061 0.812 0.102 1.239 0.102 0.589 0 1.178-0.081 1.726-0.223-3.005-0.609-5.259-3.249-5.259-6.437v-0.081c0.873 0.487 1.888 0.792 2.964 0.832-1.766-1.178-2.924-3.188-2.924-5.462 0-1.218 0.325-2.335 0.893-3.31 3.228 3.98 8.081 6.579 13.523 6.863-0.101-0.487-0.162-0.995-0.162-1.502 0-3.614 2.924-6.558 6.558-6.558 1.888 0 3.594 0.792 4.792 2.071 1.482-0.284 2.904-0.833 4.163-1.584-0.487 1.523-1.523 2.802-2.883 3.614 1.32-0.142 2.599-0.508 3.777-1.015-0.893 1.299-2.010 2.457-3.289 3.391z"></path>
</symbol>
<symbol id="icon-dribbble" viewBox="0 0 32 32">
<path d="M15.5 0c-8.547 0-15.5 6.953-15.5 15.5s6.953 15.5 15.5 15.5c8.547 0 15.5-6.953 15.5-15.5s-6.953-15.5-15.5-15.5zM25.748 7.148c1.844 2.253 2.96 5.122 2.99 8.247-0.436-0.092-4.814-0.98-9.219-0.426-0.36-0.878-0.699-1.65-1.164-2.601 4.895-1.999 7.114-4.843 7.393-5.22zM24.276 5.617c-0.238 0.339-2.231 3.018-6.939 4.782-2.169-3.986-4.574-7.261-4.94-7.75 4.198-1.012 8.623 0.079 11.879 2.968zM9.871 3.539c0.349 0.479 2.715 3.757 4.909 7.657-6.193 1.645-11.648 1.621-12.24 1.613 0.859-4.108 3.627-7.523 7.331-9.27zM2.261 15.52c0-0.135 0.003-0.27 0.007-0.405 0.579 0.012 6.995 0.095 13.607-1.884 0.379 0.742 0.741 1.495 1.073 2.247-4.787 1.348-9.137 5.22-11.283 8.894-2.115-2.347-3.404-5.452-3.404-8.852zM7.374 25.965c1.383-2.827 5.136-6.476 10.474-8.297 1.859 4.83 2.628 8.878 2.824 10.040-4.257 1.813-9.376 1.316-13.298-1.743zM22.897 26.495c-0.136-0.805-0.84-4.681-2.572-9.44 4.149-0.664 7.794 0.423 8.247 0.566-0.59 3.684-2.705 6.865-5.675 8.874z"></path>
</symbol>
<symbol id="icon-github" viewBox="0 0 32 32">
<path d="M10.703 25.123c0 0.129-0.148 0.232-0.335 0.232-0.213 0.019-0.361-0.084-0.361-0.232 0-0.129 0.148-0.232 0.335-0.232 0.194-0.019 0.361 0.084 0.361 0.232zM8.697 24.832c-0.045 0.129 0.084 0.277 0.277 0.316 0.168 0.065 0.361 0 0.4-0.129s-0.084-0.277-0.277-0.336c-0.168-0.045-0.355 0.019-0.4 0.148zM11.548 24.723c-0.187 0.045-0.316 0.168-0.297 0.316 0.019 0.129 0.187 0.213 0.381 0.168 0.187-0.045 0.316-0.168 0.297-0.297-0.019-0.123-0.194-0.206-0.381-0.187zM15.794 0c-8.948 0-15.794 6.794-15.794 15.742 0 7.155 4.503 13.277 10.935 15.432 0.826 0.148 1.116-0.361 1.116-0.781 0-0.4-0.019-2.607-0.019-3.961 0 0-4.516 0.968-5.465-1.923 0 0-0.736-1.877-1.794-2.361 0 0-1.477-1.013 0.103-0.993 0 0 1.606 0.129 2.49 1.664 1.413 2.49 3.781 1.774 4.703 1.348 0.148-1.032 0.568-1.748 1.032-2.174-3.606-0.4-7.245-0.923-7.245-7.129 0-1.774 0.49-2.665 1.523-3.8-0.168-0.419-0.716-2.148 0.168-4.381 1.348-0.419 4.452 1.742 4.452 1.742 1.29-0.361 2.677-0.548 4.052-0.548s2.761 0.187 4.052 0.548c0 0 3.103-2.168 4.452-1.742 0.884 2.239 0.336 3.961 0.168 4.381 1.032 1.142 1.664 2.032 1.664 3.8 0 6.226-3.8 6.723-7.406 7.129 0.594 0.51 1.097 1.477 1.097 2.993 0 2.174-0.019 4.865-0.019 5.394 0 0.419 0.297 0.929 1.116 0.781 6.452-2.142 10.826-8.264 10.826-15.419 0-8.948-7.258-15.742-16.206-15.742zM6.271 22.252c-0.084 0.064-0.064 0.213 0.045 0.335 0.103 0.103 0.252 0.148 0.335 0.065 0.084-0.065 0.064-0.213-0.045-0.336-0.103-0.103-0.252-0.148-0.335-0.064zM5.574 21.729c-0.045 0.084 0.019 0.187 0.148 0.252 0.103 0.064 0.232 0.045 0.277-0.045 0.045-0.084-0.019-0.187-0.148-0.252-0.129-0.039-0.232-0.019-0.277 0.045zM7.665 24.026c-0.103 0.084-0.064 0.277 0.084 0.4 0.148 0.148 0.336 0.168 0.419 0.065 0.084-0.084 0.045-0.277-0.084-0.4-0.142-0.148-0.335-0.168-0.419-0.065zM6.929 23.077c-0.103 0.064-0.103 0.232 0 0.381s0.277 0.213 0.361 0.148c0.103-0.084 0.103-0.252 0-0.4-0.090-0.148-0.258-0.213-0.361-0.129z"></path>
</symbol>
<symbol id="icon-facebook" viewBox="0 0 32 32">
<path d="M23.317 17.688l0.873-5.691h-5.461v-3.693c0-1.557 0.763-3.075 3.209-3.075h2.483v-4.845c0 0-2.253-0.384-4.407-0.384-4.497 0-7.436 2.726-7.436 7.66v4.337h-4.999v5.691h4.999v13.758h6.152v-13.758h4.587z"></path>
</symbol>
<symbol id="icon-instagram" viewBox="0 0 32 32">
<path d="M15.25 7.427c-4.327 0-7.816 3.49-7.816 7.816s3.49 7.816 7.816 7.816 7.816-3.49 7.816-7.816c0-4.326-3.49-7.816-7.816-7.816zM15.25 20.325c-2.796 0-5.082-2.279-5.082-5.082s2.279-5.082 5.082-5.082 5.082 2.279 5.082 5.082c0 2.803-2.286 5.082-5.082 5.082zM25.209 7.107c0 1.014-0.816 1.823-1.823 1.823-1.014 0-1.823-0.816-1.823-1.823s0.816-1.823 1.823-1.823c1.007 0 1.823 0.816 1.823 1.823zM30.386 8.957c-0.116-2.442-0.673-4.605-2.463-6.388-1.782-1.782-3.945-2.34-6.388-2.463-2.517-0.143-10.061-0.143-12.578 0-2.435 0.116-4.599 0.673-6.388 2.456s-2.34 3.946-2.463 6.388c-0.143 2.517-0.143 10.061 0 12.578 0.116 2.442 0.673 4.606 2.463 6.388s3.946 2.34 6.388 2.463c2.517 0.143 10.061 0.143 12.578 0 2.442-0.116 4.605-0.674 6.388-2.463 1.782-1.782 2.34-3.946 2.463-6.388 0.143-2.517 0.143-10.054 0-12.571zM27.134 24.23c-0.531 1.333-1.558 2.361-2.898 2.898-2.007 0.796-6.769 0.612-8.986 0.612s-6.986 0.177-8.986-0.612c-1.333-0.531-2.361-1.558-2.898-2.898-0.796-2.007-0.612-6.769-0.612-8.986s-0.177-6.986 0.612-8.986c0.531-1.333 1.558-2.361 2.898-2.898 2.007-0.796 6.769-0.612 8.986-0.612s6.986-0.177 8.986 0.612c1.333 0.531 2.361 1.558 2.898 2.898 0.796 2.007 0.612 6.769 0.612 8.986s0.184 6.986-0.612 8.986z"></path>
</symbol>
</defs>
</svg>
